<?xml version="1.0" standalone="no"?>
<!DOCTYPE svg PUBLIC "-//W3C//DTD SVG 1.1//EN" "http://www.w3.org/Graphics/SVG/1.1/DTD/svg11.dtd" >
<svg xmlns="http://www.w3.org/2000/svg">
<metadata></metadata>
<defs>
<font id="humanst521_lt_btlight" horiz-adv-x="1034" >
<font-face units-per-em="2048" ascent="1556" descent="-492" />
<missing-glyph horiz-adv-x="516" />
<glyph horiz-adv-x="2048" />
<glyph horiz-adv-x="2048" />
<glyph unicode="&#xd;" horiz-adv-x="516" />
<glyph unicode=" "  horiz-adv-x="516" />
<glyph unicode="&#x09;" horiz-adv-x="516" />
<glyph unicode="&#xa0;" horiz-adv-x="516" />
<glyph unicode="!" horiz-adv-x="516" d="M193 0v205h133v-205h-133zM197 1399h125l-31 -1002h-66z" />
<glyph unicode="&#x22;" horiz-adv-x="551" d="M100 881v553h86v-553h-86zM365 881v553h86v-553h-86z" />
<glyph unicode="#" horiz-adv-x="1575" d="M129 494l31 90h336l100 282h-360l28 90h365l176 498h110l-174 -498h271l176 498h110l-174 -498h322l-31 -90h-323l-101 -282h348l-30 -90h-351l-174 -494h-112l176 494h-270l-179 -494h-110l174 494h-334zM610 584h269l100 282h-270z" />
<glyph unicode="$" d="M57 170v127q112 -96 211.5 -141.5t198.5 -46.5v563q-204 64 -298.5 155t-94.5 222q0 146 107 239t286 101v145h90v-145q100 0 191 -31.5t174 -93.5v-117q-103 73 -190.5 109t-162.5 36h-12v-532q222 -60 320 -151t98 -234q0 -162 -113.5 -263.5t-304.5 -109.5v-229h-90 v229q-115 3 -218 45t-192 123zM174 1057q0 -91 73.5 -157t219.5 -105v499q-138 -10 -215.5 -73t-77.5 -164zM557 109q144 10 225.5 77.5t81.5 175.5q0 103 -69.5 167t-237.5 114v-534z" />
<glyph unicode="%" horiz-adv-x="1772" d="M76 1042q0 159 110 269t269 110q158 0 268.5 -110t110.5 -269q0 -158 -110.5 -268t-268.5 -110q-159 0 -269 110t-110 268zM176 1042q0 -119 80.5 -201.5t198.5 -82.5q116 0 198 83t82 201q0 119 -82 202t-198 83q-117 0 -198 -82.5t-81 -202.5zM362 -25l938 1446h109 l-940 -1446h-107zM938 354q0 159 110.5 270t268.5 111t268.5 -111t110.5 -270q0 -158 -110.5 -268.5t-268.5 -110.5t-268.5 110.5t-110.5 268.5zM1036 354q0 -118 81.5 -200t199.5 -82q117 0 198.5 82t81.5 200q0 119 -81.5 202t-198.5 83t-199 -82.5t-82 -202.5z" />
<glyph unicode="&#x26;" horiz-adv-x="1266" d="M53 326q0 128 90.5 238.5t255.5 185.5q-85 82 -126.5 162.5t-41.5 164.5q0 128 92.5 212.5t233.5 84.5q140 0 227.5 -82t87.5 -211q0 -112 -72 -203t-218 -161l309 -328q47 61 83.5 139t63.5 177h115q-26 -115 -73 -212.5t-115 -181.5l292 -311h-147l-209 219 q-95 -119 -213 -177t-262 -58q-166 0 -269.5 95.5t-103.5 246.5zM176 332q0 -105 76 -176.5t186 -71.5q108 0 206 55t179 162l-346 367q-150 -63 -225.5 -147.5t-75.5 -188.5zM338 1081q0 -70 41.5 -141t130.5 -149q130 61 192 131t62 155q0 90 -60 145.5t-159 55.5 q-88 0 -147.5 -56.5t-59.5 -140.5z" />
<glyph unicode="'" horiz-adv-x="285" d="M100 881v553h86v-553h-86z" />
<glyph unicode="(" horiz-adv-x="571" d="M61 485q0 260 99 493t299 445h98q-195 -215 -289 -445t-94 -493q0 -262 94 -493.5t289 -446.5h-98q-200 212 -299 446.5t-99 493.5z" />
<glyph unicode=")" horiz-adv-x="571" d="M14 -455q195 215 289 446.5t94 493.5q0 263 -94 493t-289 445h99q199 -212 298 -445t99 -493q0 -259 -99 -493.5t-298 -446.5h-99z" />
<glyph unicode="*" horiz-adv-x="905" d="M45 965v100l381 -39l-297 242l72 71l241 -297l-41 379h103l-41 -379l242 297l71 -71l-297 -242l381 39v-100l-381 39l297 -242l-71 -72l-242 297l41 -379h-103l41 379l-241 -297l-72 72l297 242z" />
<glyph unicode="+" horiz-adv-x="1706" d="M254 569v82h559v570h80v-570h559v-82h-559v-569h-80v569h-559z" />
<glyph unicode="," horiz-adv-x="516" d="M193 0v205h133v-154q0 -111 -30.5 -176t-102.5 -115v80q28 22 41.5 56.5t13.5 89.5v14h-55z" />
<glyph unicode="-" horiz-adv-x="682" d="M96 414v96h492v-96h-492z" />
<glyph unicode="." horiz-adv-x="516" d="M193 0v205h133v-205h-133z" />
<glyph unicode="/" horiz-adv-x="569" d="M-6 -190l594 1611h96l-594 -1611h-96z" />
<glyph unicode="0" d="M72 698q0 334 120.5 528.5t323.5 194.5t324 -194.5t121 -528.5t-121 -528.5t-324 -194.5t-323.5 194.5t-120.5 528.5zM180 698q0 -287 91.5 -453.5t244.5 -166.5t244.5 167t91.5 453q0 287 -91.5 454t-244.5 167t-244.5 -166.5t-91.5 -454.5z" />
<glyph unicode="1" d="M465 0v1399h104v-1399h-104z" />
<glyph unicode="2" d="M84 0v18q313 312 478 568.5t165 431.5q0 138 -90.5 223.5t-235.5 85.5q-72 0 -145 -35.5t-152 -109.5v114q76 65 154 96t164 31q182 0 297 -115t115 -298q0 -165 -126 -384t-395 -522h654v-104h-883z" />
<glyph unicode="3" d="M96 51v109q77 -41 150 -60.5t147 -19.5q159 0 251.5 81.5t92.5 221.5q0 142 -95.5 224t-262.5 84v100q164 10 254 81t90 189t-89.5 193t-232.5 75q-69 0 -137.5 -24t-146.5 -76v104q65 44 138.5 66t154.5 22q190 0 303.5 -97t113.5 -257q0 -120 -61.5 -201.5 t-181.5 -120.5q132 -43 197 -132.5t65 -227.5q0 -184 -122 -296t-325 -112q-89 0 -165.5 19t-137.5 55z" />
<glyph unicode="4" d="M37 530v45l702 842h39v-790h199v-97h-199v-530h-104v530h-637zM186 627h488v581z" />
<glyph unicode="5" d="M111 78v121q85 -60 169.5 -89.5t168.5 -29.5q152 0 248 97t96 251q0 159 -98.5 250.5t-270.5 91.5q-37 0 -86 -4.5t-108 -13.5l-1 647h596v-101h-491v-440q27 4 56 6t61 2q211 0 332.5 -117t121.5 -319t-129.5 -328.5t-339.5 -126.5q-90 0 -171.5 26t-153.5 77z" />
<glyph unicode="6" d="M111 477q0 260 148.5 495t449.5 449l53 -67q-229 -171 -358 -343.5t-164 -355.5q73 58 147.5 85.5t159.5 27.5q169 0 281 -111t112 -280q0 -180 -113 -291t-299 -111q-190 0 -303.5 136t-113.5 366zM221 457q0 -174 85 -275.5t231 -101.5q130 0 211 77.5t81 200.5 q0 143 -82 225.5t-225 82.5q-73 0 -149.5 -34.5t-147.5 -99.5v-5q-4 -48 -4 -70z" />
<glyph unicode="7" d="M59 1298v101h912v-15l-641 -1411l-94 43l587 1282h-764z" />
<glyph unicode="8" d="M113 377q0 109 52.5 196t158.5 152q-90 59 -136.5 141t-46.5 183q0 157 108 265.5t267 108.5q160 0 268.5 -108t108.5 -266q0 -100 -46.5 -182.5t-135.5 -139.5q105 -65 158 -152.5t53 -197.5q0 -173 -116 -287.5t-290 -114.5t-288.5 115t-114.5 287zM221 377 q0 -125 87 -214t208 -89q125 0 212 88t87 215t-86.5 216t-210.5 89q-122 0 -209.5 -90t-87.5 -215zM242 1051q0 -114 81.5 -195.5t194.5 -81.5q114 0 194.5 81t80.5 196t-80 195.5t-195 80.5t-195.5 -80.5t-80.5 -195.5z" />
<glyph unicode="9" d="M88 1022q0 180 113 289.5t299 109.5q191 0 304.5 -135t113.5 -364q0 -261 -149.5 -497t-449.5 -450l-55 70q230 171 360 343.5t164 354.5q-73 -57 -148.5 -84.5t-160.5 -27.5q-169 0 -280 111t-111 280zM199 1040q0 -142 82 -224.5t225 -82.5q74 0 150 34.5t147 98.5v6 q4 48 4 68q0 175 -85.5 277t-232.5 102q-129 0 -209.5 -77.5t-80.5 -201.5z" />
<glyph unicode=":" horiz-adv-x="516" d="M193 0v205h133v-205h-133zM193 721v203h133v-203h-133z" />
<glyph unicode=";" horiz-adv-x="516" d="M193 0v205h133v-154q0 -111 -30.5 -176t-102.5 -115v80q28 22 41.5 56.5t13.5 89.5v14h-55zM193 721v203h133v-203h-133z" />
<glyph unicode="&#x3c;" horiz-adv-x="1706" d="M264 580v61l1178 483v-90l-1045 -424l1045 -424v-88z" />
<glyph unicode="=" horiz-adv-x="1706" d="M254 387v82h1198v-82h-1198zM254 752v79h1198v-79h-1198z" />
<glyph unicode="&#x3e;" horiz-adv-x="1706" d="M264 98v88l1045 424l-1045 424v90l1178 -483v-61z" />
<glyph unicode="?" horiz-adv-x="651" d="M96 1239l45 143q31 21 64.5 30t77.5 9q111 0 184.5 -82.5t73.5 -210.5q0 -68 -27.5 -145.5t-87.5 -175.5q-17 -28 -53 -79q-97 -135 -97 -220q0 -38 10 -71t29 -60l-36 -31q-45 43 -67 93t-22 110q0 92 148 319l10 17q39 61 61.5 126t22.5 115q0 97 -40.5 150t-115.5 53 q-44 0 -81 -22.5t-82 -77.5zM219 0v205h133v-205h-133z" />
<glyph unicode="@" horiz-adv-x="2048" d="M121 522q0 162 50.5 307t147.5 265q144 175 345.5 265.5t449.5 90.5q160 0 304.5 -44t248.5 -124q128 -98 194 -226.5t66 -277.5q0 -169 -63 -308t-181 -232q-67 -54 -145.5 -82.5t-159.5 -28.5q-95 0 -143.5 36.5t-48.5 108.5q0 12 3 34q1 3 1 5q-49 -88 -125 -136 t-166 -48q-154 0 -233.5 83t-79.5 243q0 228 134.5 386t326.5 158q95 0 160 -43t96 -127l61 129h80l-137 -553q-10 -36 -15.5 -64.5t-5.5 -43.5q0 -44 30.5 -68t86.5 -24q48 0 100 19.5t103 56.5q101 74 162 207t61 282q0 273 -199.5 439.5t-525.5 166.5q-168 0 -310.5 -48 t-258.5 -144q-154 -128 -232 -297t-78 -375q0 -327 221.5 -522t591.5 -195q161 0 324 50.5t299 142.5l29 -45q-146 -110 -308.5 -165t-339.5 -55q-187 0 -343 46.5t-277 138.5q-152 115 -226.5 267.5t-74.5 348.5zM690 446q0 -115 57.5 -180t159.5 -65q111 0 196 72.5 t116 193.5l63 254q-22 99 -81.5 151t-151.5 52q-152 0 -255.5 -138t-103.5 -340z" />
<glyph unicode="A" horiz-adv-x="1159" d="M-53 0l610 1411h45l610 -1411h-118l-207 487h-615l-206 -487h-119zM311 582h537l-268 635z" />
<glyph unicode="B" horiz-adv-x="1118" d="M164 0v1399h330q197 0 312.5 -96t115.5 -259q0 -108 -50 -186t-149 -125q159 -40 240 -134t81 -239q0 -90 -42.5 -164.5t-122.5 -125.5q-59 -38 -138.5 -54t-246.5 -16h-330zM276 94h232q215 0 313.5 67t98.5 212q0 132 -102.5 211.5t-274.5 79.5h-267v-570zM276 758h228 q136 0 219.5 76.5t83.5 201.5q0 127 -86 200t-236 73h-209v-551z" />
<glyph unicode="C" horiz-adv-x="1391" d="M82 705q0 141 56 273.5t159 231.5q108 105 245.5 159t295.5 54q115 0 237 -32.5t252 -98.5v-116q-141 75 -262 111t-231 36q-98 0 -187 -26.5t-168 -77.5q-130 -88 -202 -223.5t-72 -295.5q0 -123 46.5 -238.5t131.5 -203.5t201.5 -135t249.5 -47q109 0 229.5 36 t263.5 111v-119q-125 -64 -247 -96.5t-242 -32.5q-121 0 -229.5 31.5t-202.5 93.5q-154 100 -239 259t-85 346z" />
<glyph unicode="D" horiz-adv-x="1497" d="M164 0v1399h485q160 0 272.5 -30.5t202.5 -96.5q132 -98 205.5 -248.5t73.5 -323.5q0 -172 -73.5 -322.5t-205.5 -248.5q-90 -67 -204 -98t-271 -31h-485zM283 98h338q138 0 237.5 23t171.5 72q117 78 183.5 212t66.5 293t-66.5 293.5t-183.5 212.5q-72 49 -171.5 71.5 t-237.5 22.5h-338v-1200z" />
<glyph unicode="E" horiz-adv-x="1010" d="M164 0v1399h758v-90h-646v-555h625v-90h-625v-570h662v-94h-774z" />
<glyph unicode="F" horiz-adv-x="915" d="M164 0v1399h710v-94h-593v-517h536v-92h-536v-696h-117z" />
<glyph unicode="G" horiz-adv-x="1464" d="M82 705q0 141 56 273.5t159 231.5q108 106 245 159.5t296 53.5q117 0 238.5 -32.5t250.5 -98.5v-116q-141 75 -262 111t-231 36q-98 0 -187 -26.5t-168 -77.5q-130 -88 -202 -223.5t-72 -295.5q0 -123 46.5 -238.5t131.5 -203.5t201.5 -135t251.5 -47q87 0 182.5 23 t198.5 69v377h-295v98h405v-539q-129 -65 -250 -97t-239 -32q-121 0 -229.5 31.5t-202.5 93.5q-154 100 -239 259t-85 346z" />
<glyph unicode="H" horiz-adv-x="1485" d="M164 0v1399h112v-647h930v647h113v-1399h-113v653h-930v-653h-112z" />
<glyph unicode="I" horiz-adv-x="463" d="M170 0v1399h121v-1399h-121z" />
<glyph unicode="J" horiz-adv-x="467" d="M-81 -299q9 -1 21 -1.5t33 -0.5q114 0 159.5 65.5t45.5 235.5v1399h119v-1389q0 -218 -76 -318t-241 -100q-6 0 -20 1t-21 1z" />
<glyph unicode="K" horiz-adv-x="1110" d="M172 0v1399h113v-686l663 686h146l-664 -686l737 -713h-157l-725 702v-702h-113z" />
<glyph unicode="L" horiz-adv-x="969" d="M170 0v1399h117v-1305h659v-94h-776z" />
<glyph unicode="M" horiz-adv-x="1606" d="M164 0v1399h117l522 -645l520 645h119v-1399h-115v1235l-524 -651l-527 651v-1235h-112z" />
<glyph unicode="N" horiz-adv-x="1581" d="M164 0v1399h117l1024 -1221v1221h112v-1399h-104l-1037 1237v-1237h-112z" />
<glyph unicode="O" horiz-adv-x="1632" d="M82 705q0 141 56 272.5t159 232.5q106 103 239.5 157t280.5 54q149 0 282.5 -54t237.5 -157q106 -104 160.5 -233.5t54.5 -276.5q0 -110 -31.5 -213t-93.5 -192q-104 -153 -263.5 -236.5t-346.5 -83.5q-148 0 -283.5 55t-236.5 156q-105 105 -160 238t-55 281zM205 700 q0 -123 46.5 -238.5t131.5 -203.5q85 -86 199 -134t235 -48q125 0 236 46.5t198 135.5q87 88 133 202t46 240t-45.5 238t-133.5 201q-87 88 -199.5 136t-234.5 48q-121 0 -233 -47.5t-201 -136.5q-86 -86 -132 -199.5t-46 -239.5z" />
<glyph unicode="P" horiz-adv-x="1028" d="M164 0v1399h340q228 0 344.5 -95t116.5 -280q0 -170 -112 -271.5t-300 -101.5h-277v-651h-112zM276 748h213q181 0 267 68.5t86 213.5q0 135 -84.5 205t-247.5 70h-234v-557z" />
<glyph unicode="Q" horiz-adv-x="1632" d="M80 705q0 140 57 272.5t160 232.5q106 103 238.5 157t279.5 54q149 0 282.5 -54t237.5 -157q107 -105 162 -234.5t55 -275.5q0 -281 -179.5 -479t-473.5 -237q126 -81 233 -122.5t189 -41.5q44 0 83.5 12.5t78.5 38.5l20 -21l-123 -145q-152 5 -314.5 73.5t-344.5 205.5 q-290 45 -465.5 243.5t-175.5 477.5zM203 700q0 -123 46.5 -238.5t131.5 -203.5q84 -86 199.5 -134t236.5 -48q124 0 234 46.5t198 135.5q87 88 132.5 202t45.5 240t-45 238t-133 201q-87 89 -199 136.5t-233 47.5t-233 -47.5t-201 -136.5q-87 -87 -133.5 -200.5 t-46.5 -238.5z" />
<glyph unicode="R" horiz-adv-x="1147" d="M164 0v1399h340q223 0 342 -90.5t119 -259.5q0 -129 -66.5 -214t-200.5 -128q38 -22 69 -51t56 -66l385 -590h-127l-223 344q-66 101 -114 166.5t-76 93.5q-37 37 -98 52.5t-179 15.5h-115v-672h-112zM276 768h86q160 0 222 8t104 27q77 34 115.5 95t38.5 151 q0 122 -86.5 189t-245.5 67h-234v-537z" />
<glyph unicode="S" horiz-adv-x="938" d="M96 104v136q99 -77 187.5 -114.5t171.5 -37.5q137 0 217 75t80 204q0 95 -54.5 155.5t-248.5 141.5q-201 83 -275 167.5t-74 215.5q0 163 112.5 266.5t293.5 103.5q82 0 160 -22.5t157 -69.5v-125q-87 59 -165.5 87t-155.5 28q-127 0 -208 -74.5t-81 -187.5 q0 -92 52 -150t224 -131l30 -12q194 -79 259 -152q45 -49 68.5 -112t23.5 -134q0 -167 -116 -274.5t-297 -107.5q-91 0 -180.5 31t-180.5 93z" />
<glyph unicode="T" horiz-adv-x="1190" d="M14 1298v101h1162v-101h-521v-1298h-120v1298h-521z" />
<glyph unicode="U" horiz-adv-x="1460" d="M152 586v813h114v-819q0 -225 126 -357.5t337 -132.5t337 132.5t126 357.5v819h117v-813q0 -282 -157 -447.5t-423 -165.5q-265 0 -421 165t-156 448z" />
<glyph unicode="V" horiz-adv-x="1114" d="M-45 1399h123l479 -1174l483 1174h119l-592 -1424h-18z" />
<glyph unicode="W" horiz-adv-x="1896" d="M-33 1399h123l424 -1163l414 1163h41l426 -1163l411 1163h121l-524 -1424h-23l-430 1176l-426 -1176h-22z" />
<glyph unicode="X" horiz-adv-x="1372" d="M-18 0l630 723l-592 676h146l516 -594l524 594h146l-596 -674l637 -725h-146l-561 643l-559 -643h-145z" />
<glyph unicode="Y" horiz-adv-x="1114" d="M-43 1399h139l461 -553l461 553h139l-543 -649v-750h-114v750z" />
<glyph unicode="Z" horiz-adv-x="1280" d="M18 0v47l1051 1260h-991v92h1173v-43l-1046 -1258h1046v-98h-1233z" />
<glyph unicode="[" horiz-adv-x="571" d="M109 -432v1831h473v-99h-367v-1634h367v-98h-473z" />
<glyph unicode="\" horiz-adv-x="569" d="M-115 1421h95l595 -1611h-96z" />
<glyph unicode="]" horiz-adv-x="571" d="M-10 -334h364v1634h-364v99h471v-1831h-471v98z" />
<glyph unicode="^" horiz-adv-x="2048" d="M424 901l539 557h118l541 -557h-125l-473 469l-475 -469h-125z" />
<glyph unicode="_" horiz-adv-x="1024" d="M0 -403h1024v-80h-1024v80z" />
<glyph unicode="`" horiz-adv-x="1024" d="M276 1403h152l209 -348h-92z" />
<glyph unicode="a" horiz-adv-x="844" d="M57 217q0 153 138.5 241t398.5 99v98q0 104 -49.5 151.5t-157.5 47.5q-67 0 -135 -27t-148 -86v101q78 52 149.5 77t141.5 25q159 0 230 -73.5t71 -239.5v-484q0 -30 8 -44.5t25 -14.5q24 0 83 52q14 13 21 19l1 -93q-45 -42 -83 -63t-67 -21q-44 0 -64.5 25.5 t-23.5 82.5q-77 -59 -143.5 -84.5t-139.5 -25.5q-114 0 -185 66t-71 171zM162 221q0 -71 48 -112t132 -41q57 0 118 28.5t134 89.5v289q-200 -3 -316 -72t-116 -182z" />
<glyph unicode="b" horiz-adv-x="1010" d="M133 53v1346h98v-594q75 73 153.5 107t172.5 34q172 0 282.5 -128t110.5 -329q0 -226 -140 -366.5t-366 -140.5q-72 0 -148.5 17.5t-162.5 53.5zM231 158q43 -37 99.5 -55.5t126.5 -18.5q166 0 271.5 111t105.5 288q0 161 -88 264t-224 103q-82 0 -154.5 -41t-136.5 -123 v-528z" />
<glyph unicode="c" horiz-adv-x="825" d="M68 463q0 205 141 343t354 138q52 0 103.5 -10t103.5 -31v-115q-53 31 -107 45.5t-114 14.5q-154 0 -261.5 -112.5t-107.5 -274.5q0 -163 107 -274t262 -111q58 0 117.5 19t121.5 57v-115q-57 -28 -114.5 -41.5t-118.5 -13.5q-213 0 -350 135t-137 346z" />
<glyph unicode="d" horiz-adv-x="1006" d="M59 463q0 214 125.5 346.5t327.5 132.5q76 0 140 -20.5t120 -63.5v541h100v-1399h-100v68q-56 -43 -120 -63.5t-140 -20.5q-202 0 -327.5 132.5t-125.5 346.5zM176 465q0 -173 97 -280t251 -107q79 0 138.5 24.5t109.5 77.5v568q-51 53 -111 78.5t-137 25.5 q-154 0 -251 -107t-97 -280z" />
<glyph unicode="e" horiz-adv-x="979" d="M72 477q0 210 118.5 337.5t311.5 127.5q179 0 289 -121t110 -321v-4h-721v-11q0 -181 97 -293t251 -112q92 0 177 32.5t178 102.5v-113q-90 -62 -176 -92t-177 -30q-207 0 -332.5 136t-125.5 361zM193 584h587q-16 122 -95 196t-191 74q-115 0 -199 -75t-102 -195z" />
<glyph unicode="f" horiz-adv-x="420" d="M-20 838v86h159v102q0 201 76.5 295t239.5 94q21 0 45.5 -3t54.5 -9v-88q-23 5 -45 7.5t-43 2.5q-119 0 -171 -62t-52 -208v-131h170v-86h-170v-838h-105v838h-159z" />
<glyph unicode="g" horiz-adv-x="858" d="M23 -221q0 90 65.5 150.5t181.5 76.5q-61 14 -94 47.5t-33 81.5q0 52 43 92.5t121 61.5q-113 44 -171 122t-58 185q0 86 43 158.5t123 122.5q41 25 94 36t166 11h344v-88h-197q57 -53 84 -111t27 -129q0 -124 -72.5 -204t-225.5 -124q-24 -7 -68 -18q-160 -40 -160 -113 q0 -68 220 -89l11 -1q216 -21 295.5 -76t79.5 -172q0 -134 -105 -200t-319 -66q-192 0 -293.5 63.5t-101.5 182.5zM119 -223q0 -76 79.5 -118t223.5 -42q158 0 239.5 44.5t81.5 131.5q0 82 -76.5 122t-236.5 40q-158 0 -234.5 -44t-76.5 -134zM180 594q0 -99 70.5 -168.5 t171.5 -69.5q100 0 170 70t70 170t-70 170t-170 70t-171 -71t-71 -171z" />
<glyph unicode="h" horiz-adv-x="997" d="M131 0v1399h100v-623q67 82 147 123t175 41q157 0 241.5 -98t84.5 -279v-563h-103v514q0 168 -57.5 250t-175.5 82q-96 0 -175 -49.5t-137 -145.5v-651h-100z" />
<glyph unicode="i" horiz-adv-x="365" d="M131 0v924h105v-924h-105zM131 1229v170h105v-170h-105z" />
<glyph unicode="j" horiz-adv-x="371" d="M-66 -377q115 10 159 66.5t44 204.5v1030h103v-1039q0 -173 -65.5 -254.5t-215.5 -97.5zM137 1229v170h103v-170h-103z" />
<glyph unicode="k" horiz-adv-x="844" d="M133 0v1399h103v-1399h-103zM244 492l432 432h137l-432 -428l496 -496h-140z" />
<glyph unicode="l" horiz-adv-x="365" d="M131 0v1399h105v-1399h-105z" />
<glyph unicode="m" horiz-adv-x="1583" d="M123 0v924h102v-148q64 83 140.5 123.5t166.5 40.5q104 0 172 -44.5t115 -143.5q77 97 157 142.5t175 45.5q151 0 233 -98t82 -279v-563h-104v514q0 167 -55.5 249.5t-167.5 82.5q-92 0 -166 -49.5t-127 -145.5v-651h-103v514q0 167 -56 249.5t-169 82.5 q-90 0 -163.5 -49t-129.5 -146v-651h-102z" />
<glyph unicode="n" horiz-adv-x="991" d="M123 0v924h102v-148q67 83 146.5 123.5t173.5 40.5q157 0 242 -98t85 -279v-563h-102v514q0 167 -58.5 249.5t-176.5 82.5q-96 0 -173.5 -49t-136.5 -146v-651h-102z" />
<glyph unicode="o" horiz-adv-x="1083" d="M61 463q0 201 140 341t342 140q200 0 340.5 -140.5t140.5 -340.5q0 -95 -37.5 -184.5t-105.5 -157.5q-69 -69 -155 -104t-183 -35q-202 0 -342 139.5t-140 341.5zM174 461q0 -161 108 -273t261 -112q152 0 259 112t107 273q0 162 -106.5 274.5t-259.5 112.5 q-155 0 -262 -112.5t-107 -274.5z" />
<glyph unicode="p" horiz-adv-x="1006" d="M133 -465v1389h98v-66q57 43 121 63.5t140 20.5q202 0 327 -132.5t125 -346.5t-125 -346.5t-327 -132.5q-78 0 -141.5 20t-119.5 62v-531h-98zM231 178q51 -53 111.5 -78.5t136.5 -25.5q155 0 252.5 107.5t97.5 279.5t-97.5 279.5t-252.5 107.5q-77 0 -137 -25.5 t-111 -79.5v-565z" />
<glyph unicode="q" horiz-adv-x="1006" d="M59 463q0 214 125.5 346.5t327.5 132.5q76 0 140 -20.5t120 -63.5v64l100 2v-1389h-100v531q-55 -42 -118.5 -62t-141.5 -20q-202 0 -327.5 132.5t-125.5 346.5zM176 461q0 -173 97 -280t251 -107q77 0 137 25t111 79v565q-51 54 -111 79.5t-137 25.5q-154 0 -251 -107 t-97 -280z" />
<glyph unicode="r" horiz-adv-x="678" d="M137 0v924h103v-228q86 132 157 188t148 56q42 0 81.5 -17t82.5 -53l-56 -98q-42 34 -76.5 50t-66.5 16q-62 0 -126 -60t-144 -194v-584h-103z" />
<glyph unicode="s" horiz-adv-x="711" d="M70 61v107q70 -47 138 -69.5t138 -22.5q89 0 140 42t51 115q0 107 -186 175q-48 18 -75 28q-102 40 -153 103.5t-51 150.5q0 112 81.5 183t211.5 71q59 0 121.5 -19t129.5 -59v-106q-70 45 -134 67.5t-124 22.5q-82 0 -135 -44.5t-53 -113.5q0 -61 48.5 -102.5 t180.5 -87.5q140 -49 192 -106.5t52 -151.5q0 -123 -81.5 -193.5t-223.5 -70.5q-72 0 -137.5 20t-130.5 61z" />
<glyph unicode="t" horiz-adv-x="541" d="M-33 838v86h201v211l78 90h24v-301h248v-86h-248v-611q0 -93 25.5 -123t91.5 -30q34 0 71 11.5t83 35.5v-101q-43 -19 -84.5 -28.5t-83.5 -9.5q-115 0 -162 55t-47 192v609h-197z" />
<glyph unicode="u" horiz-adv-x="991" d="M119 356v568h102v-518q0 -167 58.5 -248.5t177.5 -81.5q96 0 173.5 48t135.5 144v656h102v-924h-102v143q-66 -81 -145.5 -121t-174.5 -40q-157 0 -242 97t-85 277z" />
<glyph unicode="v" horiz-adv-x="864" d="M-10 924h114l336 -770l320 770h106l-393 -942h-70z" />
<glyph unicode="w" horiz-adv-x="1466" d="M-10 924h108l305 -758l295 758h58l274 -758l324 758h112l-413 -942h-58l-270 751l-289 -751h-55z" />
<glyph unicode="x" horiz-adv-x="874" d="M-6 0l371 471l-363 453h125l305 -379l303 379h119l-356 -455l381 -469h-129l-318 395l-321 -395h-117z" />
<glyph unicode="y" horiz-adv-x="864" d="M10 924h115l328 -629l307 629h106l-680 -1389h-104l315 645z" />
<glyph unicode="z" horiz-adv-x="844" d="M23 0v39l604 786h-561v99h731v-41l-604 -787h604v-96h-774z" />
<glyph unicode="{" horiz-adv-x="1024" d="M176 485v90q10 -1 20.5 -1.5t28.5 -0.5q139 0 196.5 64.5t57.5 222.5v240q0 227 68.5 302t257.5 75h43v-88h-37q-135 0 -182 -51.5t-47 -213.5v-241q0 -175 -43 -248t-152 -105q109 -32 152 -104t43 -248v-241q0 -162 46.5 -212.5t180.5 -50.5h39v-88h-43 q-189 0 -257.5 74.5t-68.5 300.5v240q0 158 -58 222t-200 64q-7 0 -21.5 -1t-23.5 -1z" />
<glyph unicode="|" horiz-adv-x="1024" d="M467 -483v2048h90v-2048h-90z" />
<glyph unicode="}" horiz-adv-x="1024" d="M176 -326h39q134 0 180.5 50.5t46.5 212.5v241q0 174 43.5 247t153.5 105q-110 32 -153.5 105t-43.5 248v241q0 162 -47 213.5t-182 51.5h-37v88h43q189 0 257.5 -75t68.5 -302v-240q0 -158 58 -222.5t200 -64.5q7 0 21.5 1t23.5 1v-90q-9 0 -23.5 1t-21.5 1 q-142 0 -200 -64t-58 -222v-240q0 -226 -68.5 -300.5t-257.5 -74.5h-43v88z" />
<glyph unicode="~" horiz-adv-x="1706" d="M178 481v92q105 74 201 110t186 36q100 0 271 -61q12 -5 19 -7q8 -3 27 -10q168 -61 261 -61q83 0 175 37.5t212 121.5v-92q-106 -74 -202 -110.5t-185 -36.5q-99 0 -266 61q-16 6 -22 8q-12 4 -33 12q-167 60 -257 60q-83 0 -175 -37.5t-212 -122.5z" />
<glyph unicode="&#xa0;" />
<glyph unicode="&#xa1;" horiz-adv-x="516" d="M193 1194v205h133v-205h-133zM197 0l28 1001h66l31 -1001h-125z" />
<glyph unicode="&#xa2;" d="M78 485q0 206 141 343t356 137h33l105 286h90l-108 -299q22 -3 43.5 -9.5t41.5 -16.5v-115q-31 18 -61 29.5t-60 17.5l-266 -717q39 -21 78 -32t80 -11q58 0 119.5 17.5t128.5 52.5v-111q-56 -28 -116 -41.5t-126 -13.5q-49 0 -98.5 10t-100.5 31l-116 -315h-90l129 356 q-101 79 -152 180.5t-51 220.5zM190 483q0 -85 33 -158.5t99 -134.5l251 680h-4q-162 0 -270.5 -111t-108.5 -276z" />
<glyph unicode="&#xa3;" d="M115 633v104h200q94 337 235.5 512.5t317.5 175.5q19 0 42.5 -3t57.5 -11l58 -102q-43 7 -78.5 11.5t-52.5 4.5q-159 0 -273 -144t-192 -444h205v-104h-242l-135 -516q57 6 104 9t80 3q92 0 221 -18.5t168 -18.5q52 0 102.5 13t102.5 40v-112q-45 -25 -93 -37t-101 -12 q-52 0 -192.5 19.5t-229.5 19.5q-68 0 -144 -8.5t-155 -24.5l166 643h-172z" />
<glyph unicode="&#xa4;" d="M29 528l26 82h113q0 13 -1 42.5t-1 45.5t1 48.5t1 44.5h-139l26 81h123q36 250 166 399.5t307 149.5q93 0 169 -24.5t143 -75.5v-119q-72 60 -147 88.5t-169 28.5q-134 0 -230.5 -121.5t-127.5 -325.5h569l-27 -81h-552q-3 -39 -4 -58t-1 -35q0 -15 1 -33.5t4 -54.5h495 l-26 -82h-459q31 -203 128 -326.5t230 -123.5q94 0 169 28t147 89v-119q-64 -52 -136.5 -76.5t-175.5 -24.5q-181 0 -310.5 150t-164.5 403h-147z" />
<glyph unicode="&#xa5;" horiz-adv-x="1067" d="M-35 1399h131l436 -557l439 557h129l-303 -387h225v-84h-295l-139 -178h434v-82h-434v-668h-111v668h-434v82h434l-139 178h-295v84h229z" />
<glyph unicode="&#xa6;" horiz-adv-x="1024" d="M467 -350v758h90v-758h-90zM467 674v758h90v-758h-90z" />
<glyph unicode="&#xa7;" d="M125 655q0 91 51 157t154 108q-67 41 -99 97t-32 132q0 129 87.5 201.5t243.5 72.5q82 0 150 -17t133 -54v-123q-65 43 -137.5 65.5t-147.5 22.5q-96 0 -153.5 -42.5t-57.5 -113.5q0 -61 36 -103t136 -91l142 -70q175 -87 225.5 -150.5t50.5 -160.5t-50 -163t-155 -110 q66 -41 99 -102.5t33 -140.5q0 -129 -91.5 -207t-244.5 -78q-85 0 -156.5 21.5t-142.5 68.5v119q75 -52 151 -77.5t154 -25.5q100 0 156.5 46.5t56.5 128.5q0 64 -37 108.5t-135 91.5l-142 68q-176 86 -227 152t-51 169zM233 655q0 -63 42 -109t145 -93l190 -88 q98 40 143.5 91t45.5 122q0 64 -41.5 109.5t-143.5 92.5l-190 86q-101 -43 -146 -93t-45 -118z" />
<glyph unicode="&#xa8;" horiz-adv-x="1024" d="M281 1130v164h141v-164h-141zM602 1130v164h141v-164h-141z" />
<glyph unicode="&#xa9;" horiz-adv-x="1706" d="M123 721q0 145 56 279t161 241q101 103 232 157t280 54t282.5 -55t237.5 -160q103 -102 157 -235t54 -281q0 -150 -53.5 -280t-157.5 -232q-107 -106 -241.5 -162.5t-278.5 -56.5q-145 0 -277 55.5t-237 161.5q-105 104 -160 236t-55 278zM195 721q0 -130 50 -249.5 t144 -213.5t213.5 -144.5t249.5 -50.5t251.5 51t217.5 146q93 92 141.5 209.5t48.5 251.5q0 133 -49 252.5t-141 212.5q-95 95 -215 144.5t-254 49.5q-133 0 -251.5 -49t-209.5 -141q-95 -97 -145.5 -218t-50.5 -251zM471 725q0 205 107 328t282 123q132 0 222.5 -72 t103.5 -186h-105q-20 81 -79.5 126.5t-147.5 45.5q-126 0 -196 -97.5t-70 -273.5q0 -169 71.5 -267t194.5 -98q91 0 156 52.5t84 140.5h102q-11 -123 -108 -201t-240 -78q-173 0 -275 123.5t-102 333.5z" />
<glyph unicode="&#xaa;" horiz-adv-x="633" d="M43 903q0 108 104.5 170t298.5 68v69q0 73 -37 106.5t-118 33.5q-52 0 -103 -19t-110 -61v71q58 37 112 54.5t107 17.5q118 0 171.5 -52t53.5 -167v-340q0 -21 6 -31t19 -10q18 0 58 35q12 10 19 16l1 -67q-33 -28 -61.5 -43t-49.5 -15q-33 0 -48.5 17.5t-19.5 58.5 q-57 -41 -107 -59.5t-103 -18.5q-86 0 -139.5 46.5t-53.5 119.5zM121 907q0 -50 36 -79t99 -29q44 0 89.5 20t100.5 64v200q-149 -1 -237 -49t-88 -127z" />
<glyph unicode="&#xab;" horiz-adv-x="854" d="M76 461l250 313h129l-252 -313l252 -311h-129zM397 461l252 313h129l-252 -313l252 -311h-129z" />
<glyph unicode="&#xac;" horiz-adv-x="1706" d="M254 774v82h1198v-502h-78v420h-1120z" />
<glyph unicode="&#xad;" horiz-adv-x="682" d="M96 414v96h492v-96h-492z" />
<glyph unicode="&#xae;" horiz-adv-x="1706" d="M123 721q0 145 56 279t161 241q101 103 232 157t280 54t282.5 -55t237.5 -160q103 -102 157 -235t54 -281q0 -150 -53.5 -280t-157.5 -232q-107 -106 -241.5 -162.5t-278.5 -56.5q-145 0 -277 55.5t-237 161.5q-105 104 -160 236t-55 278zM195 721q0 -130 50 -249.5 t144 -213.5t213.5 -144.5t249.5 -50.5t251.5 51t217.5 146q93 92 141.5 209.5t48.5 251.5q0 133 -49 252.5t-141 212.5q-95 95 -215 144.5t-254 49.5q-133 0 -251.5 -49t-209.5 -141q-95 -97 -145.5 -218t-50.5 -251zM569 309v846h305q180 0 264.5 -56.5t84.5 -176.5 q0 -89 -55.5 -149t-147.5 -71l190 -393h-131l-182 377h-213v-377h-115zM684 764h168q145 0 199.5 36t54.5 126q0 78 -61.5 114.5t-192.5 36.5h-168v-313z" />
<glyph unicode="&#xaf;" horiz-adv-x="1024" d="M256 1153v117h512v-117h-512z" />
<glyph unicode="&#xb0;" horiz-adv-x="674" d="M63 1176q0 114 80.5 194t194.5 80q112 0 192 -80.5t80 -193.5q0 -114 -80 -193.5t-194 -79.5q-115 0 -194 79t-79 194zM125 1176q0 -89 62.5 -151t150.5 -62t150.5 62t62.5 151q0 87 -63 150t-150 63q-89 0 -151 -62t-62 -151z" />
<glyph unicode="&#xb1;" horiz-adv-x="1706" d="M254 59v82h1198v-82h-1198zM254 727v80h559v354h80v-354h559v-80h-559v-352h-80v352h-559z" />
<glyph unicode="&#xb2;" horiz-adv-x="682" d="M55 559v10q207 188 315.5 342t108.5 258q0 83 -59.5 135t-155.5 52q-46 0 -94 -22t-100 -66v69q49 39 100.5 57.5t108.5 18.5q120 0 196 -69t76 -179q0 -98 -83.5 -230t-260.5 -312h432v-64h-584z" />
<glyph unicode="&#xb3;" horiz-adv-x="682" d="M63 590v65q50 -25 98.5 -37t98.5 -12q105 0 166 49.5t61 132.5q0 86 -63 135.5t-174 49.5v61q108 6 167.5 48.5t59.5 113.5q0 70 -59.5 115t-153.5 45q-46 0 -91 -14.5t-95 -45.5v64q42 25 90.5 38t101.5 13q126 0 201.5 -58t75.5 -153q0 -72 -41 -122t-121 -72 q87 -25 130.5 -78.5t43.5 -136.5q0 -111 -81 -178.5t-214 -67.5q-57 0 -108.5 11.5t-92.5 33.5z" />
<glyph unicode="&#xb4;" horiz-adv-x="1024" d="M387 1055l209 348h152l-269 -348h-92z" />
<glyph unicode="&#xb5;" horiz-adv-x="1094" d="M-111 -424l316 1487h121l-123 -590q-9 -43 -13 -77t-4 -64q0 -126 60 -192t174 -66q127 0 219.5 109t136.5 313l125 567h121l-166 -786q-2 -9 -5 -24q-20 -92 -20 -112q0 -31 17.5 -47t50.5 -16q9 0 18.5 0.5t20.5 1.5l-18 -96q-3 -1 -8 -2q-49 -11 -68 -11 q-68 0 -100.5 31.5t-32.5 95.5q0 7 0.5 16t3.5 29q-43 -83 -123.5 -127.5t-188.5 -44.5q-97 0 -169.5 45.5t-104.5 126.5l-119 -567h-121z" />
<glyph unicode="&#xb6;" horiz-adv-x="1024" d="M90 1130q0 157 108.5 253t286.5 96h447v-64h-129v-1415h-70v1415h-192v-1415h-70v782q-175 8 -278 102.5t-103 245.5z" />
<glyph unicode="&#xb7;" horiz-adv-x="516" d="M166 700q0 39 27 66t65 27t65 -27t27 -66q0 -38 -27 -65t-65 -27t-65 27t-27 65z" />
<glyph unicode="&#xb8;" horiz-adv-x="1024" d="M272 -342q77 -18 136 -26.5t102 -8.5q64 0 96.5 22.5t32.5 67.5q0 55 -34.5 80t-108.5 25q-19 0 -28.5 -0.5t-18.5 -1.5v184h63v-111h14q110 0 168 -44t58 -128q0 -85 -59 -130.5t-169 -45.5q-57 0 -118.5 9.5t-133.5 29.5v78z" />
<glyph unicode="&#xb9;" horiz-adv-x="682" d="M307 559v840h70v-840h-70z" />
<glyph unicode="&#xba;" horiz-adv-x="813" d="M47 1075q0 141 105 239.5t256 98.5q149 0 254.5 -98.5t105.5 -239.5q0 -66 -28 -129t-78 -110q-52 -48 -117 -72.5t-137 -24.5q-151 0 -256 97.5t-105 238.5zM131 1075q0 -113 80.5 -191.5t196.5 -78.5q114 0 194 78.5t80 191.5t-80 192t-194 79q-116 0 -196.5 -79 t-80.5 -192z" />
<glyph unicode="&#xbb;" horiz-adv-x="854" d="M76 150l250 311l-250 313h127l252 -313l-252 -311h-127zM397 150l252 311l-252 313h129l252 -313l-252 -311h-129z" />
<glyph unicode="&#xbc;" horiz-adv-x="1645" d="M293 614v783h65v-783h-65zM309 -25l918 1446h106l-915 -1446h-109zM1016 297v25l442 473h25v-445h127v-53h-127v-297h-66v297h-401zM1110 350h307v326z" />
<glyph unicode="&#xbd;" horiz-adv-x="1645" d="M293 614v783h65v-783h-65zM309 -25l918 1446h106l-915 -1446h-109zM1047 0v10q197 176 301 319t104 240q0 78 -57 126t-150 48q-44 0 -89 -19.5t-97 -61.5v63q47 36 96.5 54t104.5 18q114 0 186 -64.5t72 -167.5q0 -93 -79.5 -215.5t-248.5 -290.5h412v-59h-555z" />
<glyph unicode="&#xbe;" horiz-adv-x="1645" d="M61 643v62q46 -23 92 -34.5t95 -11.5q101 0 159 46t58 124q0 79 -60.5 125t-164.5 48v55q102 6 158.5 45.5t56.5 105.5q0 67 -56 108.5t-147 41.5q-45 0 -87.5 -13.5t-90.5 -41.5v59q41 24 87 36.5t97 12.5q119 0 191.5 -55t72.5 -144q0 -67 -39 -112.5t-114 -67.5 q83 -24 123 -74t40 -129q0 -102 -76.5 -164.5t-203.5 -62.5q-55 0 -103.5 10.5t-87.5 30.5zM309 -25l918 1446h106l-915 -1446h-109zM1016 297v25l442 473h25v-445h127v-53h-127v-297h-66v297h-401zM1110 350h307v326z" />
<glyph unicode="&#xbf;" horiz-adv-x="651" d="M111 268q0 70 27.5 148.5t86.5 175.5q18 29 56 83q94 132 94 216q0 38 -10 71t-29 60l37 31q44 -43 66 -93t22 -110q0 -93 -147 -320l-11 -16q-39 -61 -61.5 -126t-22.5 -116q0 -97 40.5 -149.5t115.5 -52.5q44 0 81 22.5t83 77.5l16 -10l-43 -144q-32 -21 -66.5 -31 t-76.5 -10q-112 0 -185 83t-73 210zM299 1194v205h133v-205h-133z" />
<glyph unicode="&#xc0;" horiz-adv-x="1159" d="M-53 0l610 1411h45l610 -1411h-118l-207 487h-615l-206 -487h-119zM311 582h537l-268 635zM344 1882h152l209 -348h-92z" />
<glyph unicode="&#xc1;" horiz-adv-x="1159" d="M-53 0l610 1411h45l610 -1411h-118l-207 487h-615l-206 -487h-119zM311 582h537l-268 635zM455 1534l209 348h152l-269 -348h-92z" />
<glyph unicode="&#xc2;" horiz-adv-x="1159" d="M-53 0l610 1411h45l610 -1411h-118l-207 487h-615l-206 -487h-119zM304 1534l200 348h152l200 -348h-92l-184 262l-184 -262h-92zM311 582h537l-268 635z" />
<glyph unicode="&#xc3;" horiz-adv-x="1159" d="M-53 0l610 1411h45l610 -1411h-118l-207 487h-615l-206 -487h-119zM291 1591q22 88 72 135t123 47q16 0 29 -2t24 -6l97 -31q12 -4 27 -7t28 -3q34 0 57.5 17.5t38.5 54.5h82q-26 -90 -74.5 -136t-116.5 -46q-14 0 -30.5 2.5t-34.5 7.5l-96 31q-13 4 -26 6t-28 2 q-29 0 -53 -18.5t-39 -53.5h-80zM311 582h537l-268 635z" />
<glyph unicode="&#xc4;" horiz-adv-x="1159" d="M-53 0l610 1411h45l610 -1411h-118l-207 487h-615l-206 -487h-119zM311 582h537l-268 635zM349 1609v164h141v-164h-141zM670 1609v164h141v-164h-141z" />
<glyph unicode="&#xc5;" horiz-adv-x="1159" d="M-53 0l610 1411h45l610 -1411h-118l-207 487h-615l-206 -487h-119zM311 582h537l-268 635zM338 1714q0 102 70 172t172 70q101 0 170 -70t69 -172q0 -101 -69 -170t-170 -69q-102 0 -172 69t-70 170zM430 1714q0 -63 43.5 -106t106.5 -43q62 0 105.5 43.5t43.5 105.5 q0 63 -43 106.5t-106 43.5t-106.5 -43.5t-43.5 -106.5z" />
<glyph unicode="&#xc6;" horiz-adv-x="1729" d="M-57 0l872 1399h825v-90h-645v-555h625v-90h-625v-570h662v-94h-774v664h-406l-416 -664h-118zM537 754h346v555h-15z" />
<glyph unicode="&#xc7;" horiz-adv-x="1391" d="M82 705q0 141 56 273.5t159 231.5q108 105 245.5 159t295.5 54q115 0 237 -32.5t252 -98.5v-116q-141 75 -262 111t-231 36q-98 0 -187 -26.5t-168 -77.5q-130 -88 -202 -223.5t-72 -295.5q0 -123 46.5 -238.5t131.5 -203.5t201.5 -135t249.5 -47q109 0 229.5 36 t263.5 111v-119q-125 -64 -247 -96.5t-242 -32.5q-121 0 -229.5 31.5t-202.5 93.5q-154 100 -239 259t-85 346zM512 -342q77 -18 136 -26.5t102 -8.5q64 0 96.5 22.5t32.5 67.5q0 55 -34.5 80t-108.5 25q-19 0 -28.5 -0.5t-18.5 -1.5v184h63v-111h14q110 0 168 -44t58 -128 q0 -85 -59 -130.5t-169 -45.5q-57 0 -118.5 9.5t-133.5 29.5v78z" />
<glyph unicode="&#xc8;" horiz-adv-x="1010" d="M164 0v1399h758v-90h-646v-555h625v-90h-625v-570h662v-94h-774zM311 1882h152l209 -348h-92z" />
<glyph unicode="&#xc9;" horiz-adv-x="1010" d="M164 0v1399h758v-90h-646v-555h625v-90h-625v-570h662v-94h-774zM422 1534l209 348h152l-269 -348h-92z" />
<glyph unicode="&#xca;" horiz-adv-x="1010" d="M164 0v1399h758v-90h-646v-555h625v-90h-625v-570h662v-94h-774zM271 1534l200 348h152l200 -348h-92l-184 262l-184 -262h-92z" />
<glyph unicode="&#xcb;" horiz-adv-x="1010" d="M164 0v1399h758v-90h-646v-555h625v-90h-625v-570h662v-94h-774zM316 1609v164h141v-164h-141zM637 1609v164h141v-164h-141z" />
<glyph unicode="&#xcc;" horiz-adv-x="463" d="M-5 1882h152l209 -348h-92zM170 0v1399h121v-1399h-121z" />
<glyph unicode="&#xcd;" horiz-adv-x="463" d="M106 1534l209 348h152l-269 -348h-92zM170 0v1399h121v-1399h-121z" />
<glyph unicode="&#xce;" horiz-adv-x="463" d="M-45 1534l200 348h152l200 -348h-92l-184 262l-184 -262h-92zM170 0v1399h121v-1399h-121z" />
<glyph unicode="&#xcf;" horiz-adv-x="463" d="M0 1609v164h141v-164h-141zM170 0v1399h121v-1399h-121zM321 1609v164h141v-164h-141z" />
<glyph unicode="&#xd0;" horiz-adv-x="1507" d="M0 657v93h172v649h487q160 0 271.5 -30.5t202.5 -96.5q132 -98 206 -249t74 -323q0 -171 -74 -322t-206 -249q-91 -67 -204 -98t-270 -31h-487v657h-172zM291 98h338q139 0 238.5 23t170.5 72q118 78 184 212t66 293t-66 293.5t-184 212.5q-71 49 -170.5 71.5 t-238.5 22.5h-338v-548h391v-93h-391v-559z" />
<glyph unicode="&#xd1;" horiz-adv-x="1581" d="M164 0v1399h117l1024 -1221v1221h112v-1399h-104l-1037 1237v-1237h-112zM510 1591q22 88 72 135t123 47q16 0 29 -2t24 -6l97 -31q12 -4 27 -7t28 -3q34 0 57.5 17.5t38.5 54.5h82q-26 -90 -74.5 -136t-116.5 -46q-14 0 -30.5 2.5t-34.5 7.5l-96 31q-13 4 -26 6t-28 2 q-29 0 -53 -18.5t-39 -53.5h-80z" />
<glyph unicode="&#xd2;" horiz-adv-x="1632" d="M82 705q0 141 56 272.5t159 232.5q106 103 239.5 157t280.5 54q149 0 282.5 -54t237.5 -157q106 -104 160.5 -233.5t54.5 -276.5q0 -110 -31.5 -213t-93.5 -192q-104 -153 -263.5 -236.5t-346.5 -83.5q-148 0 -283.5 55t-236.5 156q-105 105 -160 238t-55 281zM205 700 q0 -123 46.5 -238.5t131.5 -203.5q85 -86 199 -134t235 -48q125 0 236 46.5t198 135.5q87 88 133 202t46 240t-45.5 238t-133.5 201q-87 88 -199.5 136t-234.5 48q-121 0 -233 -47.5t-201 -136.5q-86 -86 -132 -199.5t-46 -239.5zM581 1882h152l209 -348h-92z" />
<glyph unicode="&#xd3;" horiz-adv-x="1632" d="M82 705q0 141 56 272.5t159 232.5q106 103 239.5 157t280.5 54q149 0 282.5 -54t237.5 -157q106 -104 160.5 -233.5t54.5 -276.5q0 -110 -31.5 -213t-93.5 -192q-104 -153 -263.5 -236.5t-346.5 -83.5q-148 0 -283.5 55t-236.5 156q-105 105 -160 238t-55 281zM205 700 q0 -123 46.5 -238.5t131.5 -203.5q85 -86 199 -134t235 -48q125 0 236 46.5t198 135.5q87 88 133 202t46 240t-45.5 238t-133.5 201q-87 88 -199.5 136t-234.5 48q-121 0 -233 -47.5t-201 -136.5q-86 -86 -132 -199.5t-46 -239.5zM692 1534l209 348h152l-269 -348h-92z" />
<glyph unicode="&#xd4;" horiz-adv-x="1632" d="M82 705q0 141 56 272.5t159 232.5q106 103 239.5 157t280.5 54q149 0 282.5 -54t237.5 -157q106 -104 160.5 -233.5t54.5 -276.5q0 -110 -31.5 -213t-93.5 -192q-104 -153 -263.5 -236.5t-346.5 -83.5q-148 0 -283.5 55t-236.5 156q-105 105 -160 238t-55 281zM205 700 q0 -123 46.5 -238.5t131.5 -203.5q85 -86 199 -134t235 -48q125 0 236 46.5t198 135.5q87 88 133 202t46 240t-45.5 238t-133.5 201q-87 88 -199.5 136t-234.5 48q-121 0 -233 -47.5t-201 -136.5q-86 -86 -132 -199.5t-46 -239.5zM541 1534l200 348h152l200 -348h-92 l-184 262l-184 -262h-92z" />
<glyph unicode="&#xd5;" horiz-adv-x="1632" d="M82 705q0 141 56 272.5t159 232.5q106 103 239.5 157t280.5 54q149 0 282.5 -54t237.5 -157q106 -104 160.5 -233.5t54.5 -276.5q0 -110 -31.5 -213t-93.5 -192q-104 -153 -263.5 -236.5t-346.5 -83.5q-148 0 -283.5 55t-236.5 156q-105 105 -160 238t-55 281zM205 700 q0 -123 46.5 -238.5t131.5 -203.5q85 -86 199 -134t235 -48q125 0 236 46.5t198 135.5q87 88 133 202t46 240t-45.5 238t-133.5 201q-87 88 -199.5 136t-234.5 48q-121 0 -233 -47.5t-201 -136.5q-86 -86 -132 -199.5t-46 -239.5zM528 1591q22 88 72 135t123 47q16 0 29 -2 t24 -6l97 -31q12 -4 27 -7t28 -3q34 0 57.5 17.5t38.5 54.5h82q-26 -90 -74.5 -136t-116.5 -46q-14 0 -30.5 2.5t-34.5 7.5l-96 31q-13 4 -26 6t-28 2q-29 0 -53 -18.5t-39 -53.5h-80z" />
<glyph unicode="&#xd6;" horiz-adv-x="1632" d="M82 705q0 141 56 272.5t159 232.5q106 103 239.5 157t280.5 54q149 0 282.5 -54t237.5 -157q106 -104 160.5 -233.5t54.5 -276.5q0 -110 -31.5 -213t-93.5 -192q-104 -153 -263.5 -236.5t-346.5 -83.5q-148 0 -283.5 55t-236.5 156q-105 105 -160 238t-55 281zM205 700 q0 -123 46.5 -238.5t131.5 -203.5q85 -86 199 -134t235 -48q125 0 236 46.5t198 135.5q87 88 133 202t46 240t-45.5 238t-133.5 201q-87 88 -199.5 136t-234.5 48q-121 0 -233 -47.5t-201 -136.5q-86 -86 -132 -199.5t-46 -239.5zM586 1609v164h141v-164h-141zM907 1609v164 h141v-164h-141z" />
<glyph unicode="&#xd7;" horiz-adv-x="1706" d="M309 123l488 487l-488 488l58 57l487 -487l487 487l58 -57l-488 -488l488 -487l-58 -57l-487 487l-487 -487z" />
<glyph unicode="&#xd8;" horiz-adv-x="1632" d="M82 694q0 147 52.5 277t152.5 229q106 107 243 164t285 57q119 0 231 -36.5t216 -108.5l145 170l70 -64l-144 -168q111 -111 165 -235.5t54 -269.5q0 -147 -52 -277t-152 -233q-105 -108 -239.5 -166t-281.5 -58q-124 0 -239 36.5t-211 107.5l-166 -191l-70 62l164 188 q-110 102 -166.5 233.5t-56.5 282.5zM205 700q0 -118 44 -229t130 -209l811 932q-81 64 -178 96.5t-205 32.5q-93 0 -184 -32t-174 -95q-116 -86 -180 -216.5t-64 -279.5zM449 201q84 -62 182 -93.5t203 -31.5q115 0 227.5 50t198.5 140q82 89 126 202t44 239 q0 121 -42.5 226.5t-127.5 196.5z" />
<glyph unicode="&#xd9;" horiz-adv-x="1460" d="M152 586v813h114v-819q0 -225 126 -357.5t337 -132.5t337 132.5t126 357.5v819h117v-813q0 -282 -157 -447.5t-423 -165.5q-265 0 -421 165t-156 448zM495 1882h152l209 -348h-92z" />
<glyph unicode="&#xda;" horiz-adv-x="1460" d="M152 586v813h114v-819q0 -225 126 -357.5t337 -132.5t337 132.5t126 357.5v819h117v-813q0 -282 -157 -447.5t-423 -165.5q-265 0 -421 165t-156 448zM606 1534l209 348h152l-269 -348h-92z" />
<glyph unicode="&#xdb;" horiz-adv-x="1460" d="M152 586v813h114v-819q0 -225 126 -357.5t337 -132.5t337 132.5t126 357.5v819h117v-813q0 -282 -157 -447.5t-423 -165.5q-265 0 -421 165t-156 448zM455 1534l200 348h152l200 -348h-92l-184 262l-184 -262h-92z" />
<glyph unicode="&#xdc;" horiz-adv-x="1460" d="M152 586v813h114v-819q0 -225 126 -357.5t337 -132.5t337 132.5t126 357.5v819h117v-813q0 -282 -157 -447.5t-423 -165.5q-265 0 -421 165t-156 448zM500 1609v164h141v-164h-141zM821 1609v164h141v-164h-141z" />
<glyph unicode="&#xdd;" horiz-adv-x="1114" d="M-43 1399h139l461 -553l461 553h139l-543 -649v-750h-114v750zM432 1534l209 348h152l-269 -348h-92z" />
<glyph unicode="&#xde;" horiz-adv-x="1038" d="M164 0v1399h112v-281h228q228 0 344.5 -94.5t116.5 -280.5q0 -169 -112 -270.5t-300 -101.5h-277v-371h-112zM276 469h213q183 0 268 67.5t85 213.5q0 135 -84.5 205.5t-247.5 70.5h-234v-557z" />
<glyph unicode="&#xdf;" horiz-adv-x="1020" d="M127 0v969q0 221 99 332.5t294 111.5q173 0 273 -90t100 -244q0 -103 -47 -176.5t-144 -120.5q125 -40 188.5 -131t63.5 -229q0 -201 -104.5 -321.5t-278.5 -120.5q-32 0 -61 5t-57 15v106l12 -2q89 -20 119 -20q117 0 187.5 88t70.5 238q0 147 -69.5 228t-203.5 89v102 q105 7 160 71.5t55 180.5q0 111 -70.5 175.5t-193.5 64.5q-151 0 -221 -84t-70 -268v-969h-102z" />
<glyph unicode="&#xe0;" horiz-adv-x="844" d="M57 217q0 153 138.5 241t398.5 99v98q0 104 -49.5 151.5t-157.5 47.5q-67 0 -135 -27t-148 -86v101q78 52 149.5 77t141.5 25q159 0 230 -73.5t71 -239.5v-484q0 -30 8 -44.5t25 -14.5q24 0 83 52q14 13 21 19l1 -93q-45 -42 -83 -63t-67 -21q-44 0 -64.5 25.5 t-23.5 82.5q-77 -59 -143.5 -84.5t-139.5 -25.5q-114 0 -185 66t-71 171zM162 221q0 -71 48 -112t132 -41q57 0 118 28.5t134 89.5v289q-200 -3 -316 -72t-116 -182zM176 1403h152l209 -348h-92z" />
<glyph unicode="&#xe1;" horiz-adv-x="844" d="M57 217q0 153 138.5 241t398.5 99v98q0 104 -49.5 151.5t-157.5 47.5q-67 0 -135 -27t-148 -86v101q78 52 149.5 77t141.5 25q159 0 230 -73.5t71 -239.5v-484q0 -30 8 -44.5t25 -14.5q24 0 83 52q14 13 21 19l1 -93q-45 -42 -83 -63t-67 -21q-44 0 -64.5 25.5 t-23.5 82.5q-77 -59 -143.5 -84.5t-139.5 -25.5q-114 0 -185 66t-71 171zM162 221q0 -71 48 -112t132 -41q57 0 118 28.5t134 89.5v289q-200 -3 -316 -72t-116 -182zM287 1055l209 348h152l-269 -348h-92z" />
<glyph unicode="&#xe2;" horiz-adv-x="844" d="M57 217q0 153 138.5 241t398.5 99v98q0 104 -49.5 151.5t-157.5 47.5q-67 0 -135 -27t-148 -86v101q78 52 149.5 77t141.5 25q159 0 230 -73.5t71 -239.5v-484q0 -30 8 -44.5t25 -14.5q24 0 83 52q14 13 21 19l1 -93q-45 -42 -83 -63t-67 -21q-44 0 -64.5 25.5 t-23.5 82.5q-77 -59 -143.5 -84.5t-139.5 -25.5q-114 0 -185 66t-71 171zM136 1055l200 348h152l200 -348h-92l-184 262l-184 -262h-92zM162 221q0 -71 48 -112t132 -41q57 0 118 28.5t134 89.5v289q-200 -3 -316 -72t-116 -182z" />
<glyph unicode="&#xe3;" horiz-adv-x="844" d="M57 217q0 153 138.5 241t398.5 99v98q0 104 -49.5 151.5t-157.5 47.5q-67 0 -135 -27t-148 -86v101q78 52 149.5 77t141.5 25q159 0 230 -73.5t71 -239.5v-484q0 -30 8 -44.5t25 -14.5q24 0 83 52q14 13 21 19l1 -93q-45 -42 -83 -63t-67 -21q-44 0 -64.5 25.5 t-23.5 82.5q-77 -59 -143.5 -84.5t-139.5 -25.5q-114 0 -185 66t-71 171zM123 1112q22 88 72 135t123 47q16 0 29 -2t24 -6l97 -31q12 -4 27 -7t28 -3q34 0 57.5 17.5t38.5 54.5h82q-26 -90 -74.5 -136t-116.5 -46q-14 0 -30.5 2.5t-34.5 7.5l-96 31q-13 4 -26 6t-28 2 q-29 0 -53 -18.5t-39 -53.5h-80zM162 221q0 -71 48 -112t132 -41q57 0 118 28.5t134 89.5v289q-200 -3 -316 -72t-116 -182z" />
<glyph unicode="&#xe4;" horiz-adv-x="844" d="M57 217q0 153 138.5 241t398.5 99v98q0 104 -49.5 151.5t-157.5 47.5q-67 0 -135 -27t-148 -86v101q78 52 149.5 77t141.5 25q159 0 230 -73.5t71 -239.5v-484q0 -30 8 -44.5t25 -14.5q24 0 83 52q14 13 21 19l1 -93q-45 -42 -83 -63t-67 -21q-44 0 -64.5 25.5 t-23.5 82.5q-77 -59 -143.5 -84.5t-139.5 -25.5q-114 0 -185 66t-71 171zM162 221q0 -71 48 -112t132 -41q57 0 118 28.5t134 89.5v289q-200 -3 -316 -72t-116 -182zM181 1130v164h141v-164h-141zM502 1130v164h141v-164h-141z" />
<glyph unicode="&#xe5;" horiz-adv-x="844" d="M57 217q0 153 138.5 241t398.5 99v98q0 104 -49.5 151.5t-157.5 47.5q-67 0 -135 -27t-148 -86v101q78 52 149.5 77t141.5 25q159 0 230 -73.5t71 -239.5v-471q0 -49 7.5 -60.5t27.5 -11.5q10 0 30 13.5t73 58.5v-94q-45 -42 -83 -63t-67 -21q-44 0 -64.5 25.5 t-23.5 82.5q-77 -59 -143.5 -84.5t-139.5 -25.5q-114 0 -185 66t-71 171zM162 221q0 -71 48 -112t132 -41q57 0 118 28.5t134 89.5v289q-200 -3 -316 -72t-116 -182zM168 1253q0 101 70 170.5t172 69.5q101 0 171 -69.5t70 -170.5t-70 -171t-171 -70q-102 0 -172 70t-70 171 zM260 1251q0 -63 43.5 -106t106.5 -43q62 0 105.5 43.5t43.5 105.5q0 64 -43.5 108t-105.5 44q-63 0 -106.5 -44t-43.5 -108z" />
<glyph unicode="&#xe6;" horiz-adv-x="1462" d="M57 223q0 162 150 257.5t418 101.5v73q0 104 -49.5 150.5t-157.5 46.5q-74 0 -148 -29.5t-147 -87.5v99q77 55 152.5 82.5t150.5 27.5q110 0 180.5 -39t108.5 -121q56 79 128 117.5t165 38.5q169 0 269.5 -120t100.5 -324h-647v-19q0 -182 85.5 -290.5t225.5 -108.5 q80 0 159 33.5t163 103.5v-115q-81 -62 -159.5 -91t-164.5 -29q-111 0 -191.5 42.5t-146.5 135.5q-98 -93 -189 -135.5t-187 -42.5q-122 0 -195.5 66.5t-73.5 176.5zM164 233q0 -80 49.5 -122.5t142.5 -42.5q65 0 130 30.5t139 96.5v301q-221 -11 -341 -79.5t-120 -183.5z M731 582h529q-15 121 -84 195.5t-164 74.5q-108 0 -184.5 -73.5t-96.5 -196.5z" />
<glyph unicode="&#xe7;" horiz-adv-x="825" d="M68 463q0 205 141 343t354 138q52 0 103.5 -10t103.5 -31v-115q-53 31 -107 45.5t-114 14.5q-154 0 -261.5 -112.5t-107.5 -274.5q0 -163 107 -274t262 -111q58 0 117.5 19t121.5 57v-115q-57 -28 -114.5 -41.5t-118.5 -13.5q-213 0 -350 135t-137 346zM229 -342 q77 -18 136 -26.5t102 -8.5q64 0 96.5 22.5t32.5 67.5q0 55 -34.5 80t-108.5 25q-19 0 -28.5 -0.5t-18.5 -1.5v184h63v-111h14q110 0 168 -44t58 -128q0 -85 -59 -130.5t-169 -45.5q-57 0 -118.5 9.5t-133.5 29.5v78z" />
<glyph unicode="&#xe8;" horiz-adv-x="979" d="M72 477q0 210 118.5 337.5t311.5 127.5q179 0 289 -121t110 -321v-4h-721v-11q0 -181 97 -293t251 -112q92 0 177 32.5t178 102.5v-113q-90 -62 -176 -92t-177 -30q-207 0 -332.5 136t-125.5 361zM193 584h587q-16 122 -95 196t-191 74q-115 0 -199 -75t-102 -195z M256 1403h152l209 -348h-92z" />
<glyph unicode="&#xe9;" horiz-adv-x="979" d="M72 477q0 210 118.5 337.5t311.5 127.5q179 0 289 -121t110 -321v-4h-721v-11q0 -181 97 -293t251 -112q92 0 177 32.5t178 102.5v-113q-90 -62 -176 -92t-177 -30q-207 0 -332.5 136t-125.5 361zM193 584h587q-16 122 -95 196t-191 74q-115 0 -199 -75t-102 -195z M367 1055l209 348h152l-269 -348h-92z" />
<glyph unicode="&#xea;" horiz-adv-x="979" d="M72 477q0 210 118.5 337.5t311.5 127.5q179 0 289 -121t110 -321v-4h-721v-11q0 -181 97 -293t251 -112q92 0 177 32.5t178 102.5v-113q-90 -62 -176 -92t-177 -30q-207 0 -332.5 136t-125.5 361zM193 584h587q-16 122 -95 196t-191 74q-115 0 -199 -75t-102 -195z M216 1055l200 348h152l200 -348h-92l-184 262l-184 -262h-92z" />
<glyph unicode="&#xeb;" horiz-adv-x="979" d="M72 477q0 210 118.5 337.5t311.5 127.5q179 0 289 -121t110 -321v-4h-721v-11q0 -181 97 -293t251 -112q92 0 177 32.5t178 102.5v-113q-90 -62 -176 -92t-177 -30q-207 0 -332.5 136t-125.5 361zM193 584h587q-16 122 -95 196t-191 74q-115 0 -199 -75t-102 -195z M261 1130v164h141v-164h-141zM582 1130v164h141v-164h-141z" />
<glyph unicode="&#xec;" horiz-adv-x="365" d="M-54 1403h152l209 -348h-92zM131 0v924h105v-924h-105z" />
<glyph unicode="&#xed;" horiz-adv-x="365" d="M57 1055l209 348h152l-269 -348h-92zM131 0v924h105v-924h-105z" />
<glyph unicode="&#xee;" horiz-adv-x="365" d="M-94 1055l200 348h152l200 -348h-92l-184 262l-184 -262h-92zM131 0v924h105v-924h-105z" />
<glyph unicode="&#xef;" horiz-adv-x="365" d="M-49 1130v164h141v-164h-141zM131 0v924h105v-924h-105zM272 1130v164h141v-164h-141z" />
<glyph unicode="&#xf0;" horiz-adv-x="1083" d="M72 453q0 197 136.5 334t334.5 137q68 0 124 -18.5t107 -57.5q-60 84 -114 152t-99 116l-254 -127l-33 66l228 119q-47 43 -93.5 81.5t-95.5 75.5l56 68q61 -42 116.5 -86.5t104.5 -91.5l254 127l39 -66l-232 -119q183 -198 273 -374t90 -336q0 -195 -138 -333t-333 -138 q-198 0 -334.5 136t-136.5 335zM182 453q0 -159 105 -269t256 -110q149 0 254.5 111t105.5 268q0 158 -105 268t-255 110q-151 0 -256 -110t-105 -268z" />
<glyph unicode="&#xf1;" horiz-adv-x="991" d="M123 0v924h102v-148q67 83 146.5 123.5t173.5 40.5q157 0 242 -98t85 -279v-563h-102v514q0 167 -58.5 249.5t-176.5 82.5q-96 0 -173.5 -49t-136.5 -146v-651h-102zM213 1112q22 88 72 135t123 47q16 0 29 -2t24 -6l97 -31q12 -4 27 -7t28 -3q34 0 57.5 17.5t38.5 54.5 h82q-26 -90 -74.5 -136t-116.5 -46q-14 0 -30.5 2.5t-34.5 7.5l-96 31q-13 4 -26 6t-28 2q-29 0 -53 -18.5t-39 -53.5h-80z" />
<glyph unicode="&#xf2;" horiz-adv-x="1083" d="M61 463q0 201 140 341t342 140q200 0 340.5 -140.5t140.5 -340.5q0 -95 -37.5 -184.5t-105.5 -157.5q-69 -69 -155 -104t-183 -35q-202 0 -342 139.5t-140 341.5zM174 461q0 -161 108 -273t261 -112q152 0 259 112t107 273q0 162 -106.5 274.5t-259.5 112.5 q-155 0 -262 -112.5t-107 -274.5zM307 1403h152l209 -348h-92z" />
<glyph unicode="&#xf3;" horiz-adv-x="1083" d="M61 463q0 201 140 341t342 140q200 0 340.5 -140.5t140.5 -340.5q0 -95 -37.5 -184.5t-105.5 -157.5q-69 -69 -155 -104t-183 -35q-202 0 -342 139.5t-140 341.5zM174 461q0 -161 108 -273t261 -112q152 0 259 112t107 273q0 162 -106.5 274.5t-259.5 112.5 q-155 0 -262 -112.5t-107 -274.5zM418 1055l209 348h152l-269 -348h-92z" />
<glyph unicode="&#xf4;" horiz-adv-x="1083" d="M61 463q0 201 140 341t342 140q200 0 340.5 -140.5t140.5 -340.5q0 -95 -37.5 -184.5t-105.5 -157.5q-69 -69 -155 -104t-183 -35q-202 0 -342 139.5t-140 341.5zM174 461q0 -161 108 -273t261 -112q152 0 259 112t107 273q0 162 -106.5 274.5t-259.5 112.5 q-155 0 -262 -112.5t-107 -274.5zM267 1055l200 348h152l200 -348h-92l-184 262l-184 -262h-92z" />
<glyph unicode="&#xf5;" horiz-adv-x="1083" d="M61 463q0 201 140 341t342 140q200 0 340.5 -140.5t140.5 -340.5q0 -95 -37.5 -184.5t-105.5 -157.5q-69 -69 -155 -104t-183 -35q-202 0 -342 139.5t-140 341.5zM174 461q0 -161 108 -273t261 -112q152 0 259 112t107 273q0 162 -106.5 274.5t-259.5 112.5 q-155 0 -262 -112.5t-107 -274.5zM254 1112q22 88 72 135t123 47q16 0 29 -2t24 -6l97 -31q12 -4 27 -7t28 -3q34 0 57.5 17.5t38.5 54.5h82q-26 -90 -74.5 -136t-116.5 -46q-14 0 -30.5 2.5t-34.5 7.5l-96 31q-13 4 -26 6t-28 2q-29 0 -53 -18.5t-39 -53.5h-80z" />
<glyph unicode="&#xf6;" horiz-adv-x="1083" d="M61 463q0 201 140 341t342 140q200 0 340.5 -140.5t140.5 -340.5q0 -95 -37.5 -184.5t-105.5 -157.5q-69 -69 -155 -104t-183 -35q-202 0 -342 139.5t-140 341.5zM174 461q0 -161 108 -273t261 -112q152 0 259 112t107 273q0 162 -106.5 274.5t-259.5 112.5 q-155 0 -262 -112.5t-107 -274.5zM312 1130v164h141v-164h-141zM633 1130v164h141v-164h-141z" />
<glyph unicode="&#xf7;" horiz-adv-x="1706" d="M254 569v82h1198v-82h-1198zM756 264q0 41 29 71t69 30q41 0 69.5 -29.5t28.5 -71.5q0 -40 -28.5 -69t-69.5 -29t-69.5 28.5t-28.5 69.5zM756 956q0 41 28.5 70t69.5 29t69.5 -28.5t28.5 -70.5q0 -40 -28.5 -70t-69.5 -30t-69.5 29.5t-28.5 70.5z" />
<glyph unicode="&#xf8;" horiz-adv-x="1083" d="M61 455q0 209 140 349t350 140q78 0 146.5 -22.5t129.5 -69.5l117 129l64 -57l-117 -131q67 -76 100 -157t33 -173q0 -95 -37.5 -184.5t-105.5 -157.5t-154.5 -103.5t-183.5 -35.5q-81 0 -153 24t-142 74l-119 -131l-63 57l120 133q-63 70 -94 147.5t-31 168.5zM174 461 q0 -72 20 -131.5t62 -112.5l502 555q-44 39 -96 57.5t-119 18.5q-155 0 -262 -112.5t-107 -274.5zM317 156q50 -41 105.5 -60.5t120.5 -19.5q152 0 259 112t107 273q0 69 -22 131.5t-68 122.5z" />
<glyph unicode="&#xf9;" horiz-adv-x="991" d="M119 356v568h102v-518q0 -167 58.5 -248.5t177.5 -81.5q96 0 173.5 48t135.5 144v656h102v-924h-102v143q-66 -81 -145.5 -121t-174.5 -40q-157 0 -242 97t-85 277zM251 1403h152l209 -348h-92z" />
<glyph unicode="&#xfa;" horiz-adv-x="991" d="M119 356v568h102v-518q0 -167 58.5 -248.5t177.5 -81.5q96 0 173.5 48t135.5 144v656h102v-924h-102v143q-66 -81 -145.5 -121t-174.5 -40q-157 0 -242 97t-85 277zM362 1055l209 348h152l-269 -348h-92z" />
<glyph unicode="&#xfb;" horiz-adv-x="991" d="M119 356v568h102v-518q0 -167 58.5 -248.5t177.5 -81.5q96 0 173.5 48t135.5 144v656h102v-924h-102v143q-66 -81 -145.5 -121t-174.5 -40q-157 0 -242 97t-85 277zM211 1055l200 348h152l200 -348h-92l-184 262l-184 -262h-92z" />
<glyph unicode="&#xfc;" horiz-adv-x="991" d="M119 356v568h102v-518q0 -167 58.5 -248.5t177.5 -81.5q96 0 173.5 48t135.5 144v656h102v-924h-102v143q-66 -81 -145.5 -121t-174.5 -40q-157 0 -242 97t-85 277zM256 1130v164h141v-164h-141zM577 1130v164h141v-164h-141z" />
<glyph unicode="&#xfd;" horiz-adv-x="864" d="M10 924h115l328 -629l307 629h106l-680 -1389h-104l315 645zM307 1055l209 348h152l-269 -348h-92z" />
<glyph unicode="&#xfe;" horiz-adv-x="1006" d="M133 -465v1864h98v-541q55 43 120.5 63.5t148.5 20.5q196 0 320 -133.5t124 -345.5t-124 -345.5t-320 -133.5q-85 0 -150 19.5t-119 62.5v-531h-98zM231 178q51 -53 111.5 -78.5t136.5 -25.5q155 0 252.5 107.5t97.5 279.5t-97.5 279.5t-252.5 107.5q-76 0 -136.5 -25.5 t-111.5 -79.5v-565z" />
<glyph unicode="&#xff;" horiz-adv-x="864" d="M10 924h115l328 -629l307 629h106l-680 -1389h-104l315 645zM201 1130v164h141v-164h-141zM522 1130v164h141v-164h-141z" />
<glyph unicode="&#x152;" horiz-adv-x="1851" d="M98 698q0 202 81 359t233 250q81 49 185 70.5t308 21.5h99h757v-90h-645v-555h625v-90h-625v-570h662v-94h-891q-197 0 -297.5 21t-177.5 69q-152 93 -233 250t-81 358zM221 700q0 -296 168.5 -451t491.5 -155h59q26 0 39 0.5t24 1.5l1 1209q-23 2 -48.5 3t-74.5 1 q-323 0 -491.5 -156t-168.5 -453z" />
<glyph unicode="&#x153;" horiz-adv-x="1819" d="M61 463q0 201 140 341t342 140q130 0 236 -61.5t177 -177.5q63 118 158.5 176.5t224.5 58.5q180 0 290 -121t110 -321h-721v-13q0 -182 98 -295.5t254 -113.5q87 0 172 33.5t180 105.5v-115q-86 -60 -172 -89t-180 -29q-142 0 -246 62t-163 183q-80 -123 -184.5 -184 t-233.5 -61q-202 0 -342 139.5t-140 341.5zM174 461q0 -161 108 -273t261 -112q152 0 259 112t107 273q0 162 -106.5 274.5t-259.5 112.5q-155 0 -262 -112.5t-107 -274.5zM1022 582h598q-15 120 -94.5 195t-190.5 75q-121 0 -203.5 -71t-109.5 -199z" />
<glyph unicode="&#x178;" horiz-adv-x="1114" d="M-43 1399h139l461 -553l461 553h139l-543 -649v-750h-114v750zM326 1609v164h141v-164h-141zM647 1609v164h141v-164h-141z" />
<glyph unicode="&#x2c6;" horiz-adv-x="1024" d="M236 1055l200 348h152l200 -348h-92l-184 262l-184 -262h-92z" />
<glyph unicode="&#x2dc;" horiz-adv-x="1024" d="M223 1112q22 88 72 135t123 47q16 0 29 -2t24 -6l97 -31q12 -4 27 -7t28 -3q34 0 57.5 17.5t38.5 54.5h82q-26 -90 -74.5 -136t-116.5 -46q-14 0 -30.5 2.5t-34.5 7.5l-96 31q-13 4 -26 6t-28 2q-29 0 -53 -18.5t-39 -53.5h-80z" />
<glyph unicode="&#x2000;" horiz-adv-x="978" />
<glyph unicode="&#x2001;" horiz-adv-x="1956" />
<glyph unicode="&#x2002;" horiz-adv-x="978" />
<glyph unicode="&#x2003;" horiz-adv-x="1956" />
<glyph unicode="&#x2004;" horiz-adv-x="652" />
<glyph unicode="&#x2005;" horiz-adv-x="489" />
<glyph unicode="&#x2006;" horiz-adv-x="326" />
<glyph unicode="&#x2007;" horiz-adv-x="326" />
<glyph unicode="&#x2008;" horiz-adv-x="244" />
<glyph unicode="&#x2009;" horiz-adv-x="391" />
<glyph unicode="&#x200a;" horiz-adv-x="108" />
<glyph unicode="&#x2010;" horiz-adv-x="682" d="M96 414v96h492v-96h-492z" />
<glyph unicode="&#x2011;" horiz-adv-x="682" d="M96 414v96h492v-96h-492z" />
<glyph unicode="&#x2012;" horiz-adv-x="682" d="M96 414v96h492v-96h-492z" />
<glyph unicode="&#x2013;" horiz-adv-x="1024" d="M0 426v72h1024v-72h-1024z" />
<glyph unicode="&#x2014;" horiz-adv-x="2048" d="M0 426v72h2048v-72h-2048z" />
<glyph unicode="&#x2018;" horiz-adv-x="426" d="M147 979v154q0 110 30.5 174t103.5 114v-80q-30 -22 -44 -56.5t-14 -88.5v-12h58v-205h-134z" />
<glyph unicode="&#x2019;" horiz-adv-x="426" d="M147 954v82q29 22 42.5 56t13.5 88v14h-56v205h134v-154q0 -111 -30.5 -176t-103.5 -115z" />
<glyph unicode="&#x201a;" horiz-adv-x="426" d="M147 0v205h134v-154q0 -111 -30.5 -176t-103.5 -115v80q29 22 42.5 56.5t13.5 89.5v14h-56z" />
<glyph unicode="&#x201c;" horiz-adv-x="698" d="M147 979v154q0 110 30.5 174t103.5 114v-80q-30 -22 -44 -56.5t-14 -88.5v-12h58v-205h-134zM418 979v154q0 110 30 174t103 114v-80q-29 -21 -42 -55t-13 -88v-14h55v-205h-133z" />
<glyph unicode="&#x201d;" horiz-adv-x="698" d="M147 954v82q29 22 42.5 56t13.5 88v14h-56v205h134v-154q0 -111 -30.5 -176t-103.5 -115zM418 954v82q29 22 42 56t13 88v14h-55v205h133v-154q0 -111 -30.5 -176t-102.5 -115z" />
<glyph unicode="&#x201e;" horiz-adv-x="698" d="M147 0v205h134v-154q0 -111 -30.5 -176t-103.5 -115v80q29 22 42.5 56.5t13.5 89.5v14h-56zM418 0v205h133v-154q0 -111 -30.5 -176t-102.5 -115v80q29 22 42 56.5t13 89.5v14h-55z" />
<glyph unicode="&#x2022;" horiz-adv-x="1208" d="M307 762q0 123 87 209t210 86q122 0 208.5 -86.5t86.5 -208.5t-87.5 -209.5t-209.5 -87.5q-123 0 -209 87t-86 210z" />
<glyph unicode="&#x2026;" horiz-adv-x="2048" d="M277 0v205h133v-205h-133zM959 0v205h133v-205h-133zM1643 0v205h133v-205h-133z" />
<glyph unicode="&#x202f;" horiz-adv-x="391" />
<glyph unicode="&#x2039;" horiz-adv-x="530" d="M76 461l250 313h129l-250 -313l250 -311h-129z" />
<glyph unicode="&#x203a;" horiz-adv-x="530" d="M76 150l250 311l-250 313h127l252 -313l-252 -311h-127z" />
<glyph unicode="&#x205f;" horiz-adv-x="489" />
<glyph unicode="&#x20ac;" d="M29 528l26 82h113q0 13 -1 42.5t-1 45.5t1 48.5t1 44.5h-139l26 81h123q36 250 166 399.5t307 149.5q93 0 169 -24.5t143 -75.5v-119q-72 60 -147 88.5t-169 28.5q-134 0 -230.5 -121.5t-127.5 -325.5h569l-27 -81h-552q-3 -39 -4 -58t-1 -35q0 -15 1 -33.5t4 -54.5h495 l-26 -82h-459q31 -203 128 -326.5t230 -123.5q94 0 169 28t147 89v-119q-64 -52 -136.5 -76.5t-175.5 -24.5q-181 0 -310.5 150t-164.5 403h-147z" />
<glyph unicode="&#x2122;" horiz-adv-x="1706" d="M274 1403v51h420v-51h-174v-479h-67v479h-179zM825 924v530h101l174 -440l162 440h102v-530h-59v479l-181 -479h-49l-190 479v-479h-60z" />
<glyph unicode="&#xe000;" horiz-adv-x="925" d="M0 0v925h925v-925h-925z" />
<glyph unicode="&#xfb01;" horiz-adv-x="872" d="M-18 838v86h149v145q0 169 77.5 256.5t227.5 87.5q134 0 216 -72.5t89 -199.5h-102q-8 88 -60.5 136t-142.5 48q-105 0 -152.5 -59.5t-47.5 -190.5v-151h170v-86h-170v-838h-105v838h-149zM639 0v924h102v-924h-102z" />
<glyph unicode="&#xfb02;" horiz-adv-x="872" d="M-18 838v86h149v96q0 202 76 295.5t239 93.5q27 0 56 -3.5t61 -11.5v-87q-26 7 -54.5 10.5t-59.5 3.5q-112 0 -162.5 -64t-50.5 -208v-125h170v-86h-170v-838h-105v838h-149zM639 0v1399h102v-1399h-102z" />
</font>
</defs>
</svg>
